<svg id="Calque_1" data-name="Calque 1" xmlns="http://www.w3.org/2000/svg" viewBox="0 0 348.81 35.05"><defs><style>.cls-1{fill:#fed75a;}</style></defs><title>prenom1</title><path d="M63.5,161.57h2.74l10.44,25.56H73.22l-3-7.49H59.47l-3,7.49H53Zm6,15.55-4.61-11.81-4.75,11.81Z" transform="translate(-25.93 -153.25)"/><path d="M99.25,184.25v2.88H81.89V161.57h17v2.88H85.13v8.28h12v2.7h-12v8.82Z" transform="translate(-25.93 -153.25)"/><path d="M123.91,164.45h-8.82v22.68h-3.24V164.45H103v-2.88h20.88Z" transform="translate(-25.93 -153.25)"/><path d="M129.38,187.13V161.57h3.24v25.56Z" transform="translate(-25.93 -153.25)"/><path d="M159,164.45h-8.82v22.68h-3.24V164.45h-8.82v-2.88H159Z" transform="translate(-25.93 -153.25)"/><path d="M164.44,187.13V161.57h3.24v25.56Z" transform="translate(-25.93 -153.25)"/><path d="M183.38,161.57h2.74l10.44,25.56H193.1l-3-7.49H179.35l-3,7.49H172.9Zm6,15.55-4.61-11.81L180,177.12Z" transform="translate(-25.93 -153.25)"/><path class="cls-1" d="M331.5,242.5" transform="translate(-25.93 -153.25)"/><polygon class="cls-1" points="9.07 17.75 16.07 25.75 9.07 25.75 9.07 17.75"/><path d="M25.93,187.5V153.42h9.36v25.92H50.74v8.16Z" transform="translate(-25.93 -153.25)"/><polygon class="cls-1" points="202.58 23.26 194.56 30.23 194.58 23.23 202.58 23.26"/><path d="M211.59,187.33V153.25h14.69a10.36,10.36,0,0,1,4.61,1,12,12,0,0,1,3.62,2.69,12.55,12.55,0,0,1,2.38,3.79,11.38,11.38,0,0,1,.86,4.3,12.48,12.48,0,0,1-3.1,8.18,10.86,10.86,0,0,1-3.55,2.64,10.61,10.61,0,0,1-4.58,1H221v10.46ZM221,168.71h4.94a2.19,2.19,0,0,0,1.61-.79,4.19,4.19,0,0,0,.74-2.86,3.78,3.78,0,0,0-.86-2.88,2.63,2.63,0,0,0-1.73-.77H221Z" transform="translate(-25.93 -153.25)"/><path d="M260.07,185.25v2.88H242.72V162.57h17v2.88H246v8.28h12v2.7H246v8.82Z" transform="translate(-25.93 -153.25)"/><path d="M266.3,188.13V162.57h10.94a6.94,6.94,0,0,1,3.11.7,7.84,7.84,0,0,1,2.45,1.87,8.93,8.93,0,0,1,1.6,2.63,8,8,0,0,1,.58,3,8.8,8.8,0,0,1-.38,2.57,8,8,0,0,1-1.08,2.25,7.23,7.23,0,0,1-1.69,1.73,6.59,6.59,0,0,1-2.21,1l6.19,9.79h-3.67l-5.83-9.18h-6.77v9.18Zm3.24-12.06h7.74a3.8,3.8,0,0,0,1.82-.43,4.32,4.32,0,0,0,1.39-1.17,5.66,5.66,0,0,0,.9-1.71,6.34,6.34,0,0,0,.32-2,5.47,5.47,0,0,0-.38-2,6,6,0,0,0-1-1.69,4.6,4.6,0,0,0-1.48-1.15,4,4,0,0,0-1.78-.41h-7.52Z" transform="translate(-25.93 -153.25)"/><path d="M291.75,188.13V162.57H302.7a6.94,6.94,0,0,1,3.11.7,7.84,7.84,0,0,1,2.45,1.87,8.93,8.93,0,0,1,1.6,2.63,8,8,0,0,1,.58,3,8.8,8.8,0,0,1-.38,2.57,8,8,0,0,1-1.08,2.25,7.23,7.23,0,0,1-1.69,1.73,6.59,6.59,0,0,1-2.21,1l6.19,9.79h-3.67l-5.83-9.18H295v9.18ZM295,176.07h7.74a3.8,3.8,0,0,0,1.82-.43,4.32,4.32,0,0,0,1.39-1.17,5.66,5.66,0,0,0,.9-1.71,6.34,6.34,0,0,0,.32-2,5.47,5.47,0,0,0-.38-2,6,6,0,0,0-1-1.69,4.6,4.6,0,0,0-1.48-1.15,4,4,0,0,0-1.78-.41H295Z" transform="translate(-25.93 -153.25)"/><path d="M317.21,188.13V162.57h3.24v25.56Z" transform="translate(-25.93 -153.25)"/><path d="M338.73,188.31a10.9,10.9,0,0,1-4.91-1.1,12.12,12.12,0,0,1-3.8-2.92,13.25,13.25,0,0,1-2.45-4.16,13.71,13.71,0,0,1-.86-4.79,13.29,13.29,0,0,1,.92-4.9,13.49,13.49,0,0,1,2.54-4.14,12.23,12.23,0,0,1,3.83-2.86,11,11,0,0,1,4.81-1.06,10.51,10.51,0,0,1,4.9,1.13,12.52,12.52,0,0,1,3.78,3,13.77,13.77,0,0,1,3.31,8.89,13.25,13.25,0,0,1-.92,4.9,13.43,13.43,0,0,1-2.52,4.12,12.13,12.13,0,0,1-3.82,2.84A11,11,0,0,1,338.73,188.31Zm-8.75-13a11.39,11.39,0,0,0,.63,3.76,10.36,10.36,0,0,0,1.78,3.22,8.65,8.65,0,0,0,2.77,2.23,7.79,7.79,0,0,0,3.6.83,7.55,7.55,0,0,0,3.67-.88,9,9,0,0,0,2.75-2.3,10.32,10.32,0,0,0,1.73-3.22,11.49,11.49,0,0,0,0-7.4,10,10,0,0,0-1.8-3.2,9,9,0,0,0-2.77-2.21,8.12,8.12,0,0,0-7.22,0,8.84,8.84,0,0,0-2.75,2.27,10.36,10.36,0,0,0-1.75,3.2A11.33,11.33,0,0,0,330,175.35Z" transform="translate(-25.93 -153.25)"/><path d="M374.73,165.45h-8.82v22.68h-3.24V165.45h-8.82v-2.88h20.88Z" transform="translate(-25.93 -153.25)"/></svg>