<svg xmlns="http://www.w3.org/2000/svg" viewBox="0 0 113.26 109.44"><defs><style>.cls-1{fill:none;stroke:#fed75a;stroke-miterlimit:10;}.cls-2{fill:#fed75a;}</style></defs><title>Fichier 1</title><g id="Calque_2" data-name="Calque 2"><g id="Calque_2-2" data-name="Calque 2"><polygon class="cls-1" points="12.63 42.5 40.63 24.5 72.63 24.5 100.63 42.5 112.63 76.5 65.63 95.5 57.63 108.5 48.63 94.5 0.63 77.5 12.63 42.5"/></g><g id="Calque_3" data-name="Calque 3"><polygon class="cls-2" points="5.13 0 13.13 42 41.13 24 5.13 0"/></g><g id="Calque_4" data-name="Calque 4"><polygon class="cls-2" points="73.13 24 108.13 1 101.13 42 73.13 24"/></g><g id="Calque_5" data-name="Calque 5"><polygon points="13.13 42 50.13 72 41.13 24 13.13 42"/></g><g id="Calque_6" data-name="Calque 6"><polyline class="cls-2" points="1.13 78 33.13 59 49.13 95"/></g><g id="Calque_7" data-name="Calque 7"><polygon class="cls-2" points="41.13 24 57.13 107 63.96 72 72.13 24 41.13 24"/></g><g id="Calque_8" data-name="Calque 8"><polygon points="101.13 43 64.13 72 72.13 24 101.13 43"/></g><g id="Calque_9" data-name="Calque 9"><polyline class="cls-2" points="113.13 77 79.5 60.96 65.13 95"/></g></g></svg>